<?xml version="1.0" standalone="no"?>
<!DOCTYPE svg PUBLIC "-//W3C//DTD SVG 1.1//EN" "http://www.w3.org/Graphics/SVG/1.1/DTD/svg11.dtd">
<svg xmlns="http://www.w3.org/2000/svg" xmlns:xlink="http://www.w3.org/1999/xlink" version="1.1" id="Layer_1" viewBox="0 0 392.588 392.588" xml:space="preserve" width="392.5880126953125" height="392.5880126953125">
<rect x="21.851" y="21.813" style="fill:#FFFFFF;" width="121.6" height="348.897"/>
<path style="fill:#194F82;" d="M391.887,332.698L275.329,22.848c-2.78-5.883-7.434-8.145-14.093-6.335l-96,36.073V10.953  c0-6.012-4.848-10.925-10.925-10.925H10.925C4.913,0.027,0,4.876,0,10.953v370.683c0,6.012,4.848,10.925,10.925,10.925h143.451  c6.012,0,10.925-4.848,10.925-10.925V156.213l86.303,229.236c1.164,4.655,7.758,8.792,14.093,6.335l119.855-45.123  C391.111,344.593,394.02,338.322,391.887,332.698z M143.451,370.71h-121.6V21.813h121.6L143.451,370.71L143.451,370.71z   M268.218,367.607L165.236,94.282v-18.36l93.414-35.232l108.994,289.422L268.218,367.607z"/>
<rect x="63.03" y="194.29" style="fill:#FFC10D;" width="39.24" height="135.24"/>
<path style="fill:#194F82;" d="M113.196,172.504H52.17c-6.012,0-10.925,4.848-10.925,10.925v157.026  c0,6.012,4.848,10.925,10.925,10.925h61.026c6.012,0,10.925-4.848,10.925-10.925V183.365  C124.057,177.353,119.208,172.504,113.196,172.504z M102.271,329.53H63.03V194.29h39.24V329.53z"/>
<path style="fill:#FFC10D;" d="M82.683,73.337c-8.21,0-14.869,6.659-14.869,14.804s6.659,14.804,14.804,14.804  s14.804-6.659,14.804-14.804C97.487,79.995,90.828,73.337,82.683,73.337z"/>
<path style="fill:#194F82;" d="M82.683,51.486c-20.234,0-36.655,16.485-36.655,36.655c0,20.234,16.485,36.655,36.655,36.655  s36.655-16.485,36.655-36.655S102.917,51.486,82.683,51.486z M82.683,103.009c-8.21,0-14.869-6.659-14.869-14.804  c0-8.21,6.659-14.804,14.804-14.804s14.804,6.659,14.804,14.804C97.487,96.351,90.828,103.009,82.683,103.009z"/>
<polygon style="fill:#FFFFFF;" points="165.236,75.922 165.236,94.282 268.218,367.607 367.644,330.112 258.715,40.69 "/>
<polygon style="fill:#56ACE0;" points="254.642,210.516 293.172,312.593 312.63,305.223 274.23,203.147 "/>
<path style="fill:#194F82;" d="M336.873,307.745L290.844,185.24c-2.069-5.624-8.404-8.469-14.093-6.335L236.8,193.967  c-5.883,2.844-8.145,7.499-6.335,14.093l46.028,122.505c2.327,5.947,8.792,8.469,14.093,6.335l39.952-14.998  C337.455,319.252,338.489,312.27,336.873,307.745z M293.172,312.593l-38.4-102.012l19.523-7.37l38.4,102.012L293.172,312.593z"/>
<path style="fill:#56ACE0;" d="M229.43,101.264c-6.853,0-12.541,5.56-12.541,12.541c0,6.853,5.56,12.541,12.541,12.541  c6.853,0,12.541-5.624,12.541-12.541C241.907,106.888,236.283,101.264,229.43,101.264z"/>
<path style="fill:#194F82;" d="M229.43,79.478c-18.941,0-34.327,15.386-34.327,34.327s15.386,34.327,34.327,34.327  s34.327-15.386,34.327-34.327C263.693,94.864,248.307,79.478,229.43,79.478z M229.43,126.282c-6.853,0-12.541-5.624-12.541-12.541  c0-6.853,5.56-12.541,12.541-12.541c6.853,0,12.541,5.56,12.541,12.541C241.907,120.658,236.283,126.282,229.43,126.282z"/>
</svg>